HIERARCHY
ROOT pelvis
{
  OFFSET 0 0 0
  CHANNELS 6 Xposition Yposition Zposition Zrotation Xrotation Yrotation
  JOINT pelvis_right_femur
  {
    OFFSET -11.43119 -3.542788 0.2090856
    CHANNELS 3 Zrotation Xrotation Yrotation
    JOINT right_femur_tibia
    {
      OFFSET -1.028693 -40.73281 5
      CHANNELS 3 Zrotation Xrotation Yrotation
      JOINT right_tibia_foot
      {
        OFFSET -0.5013517 -42.05707 -5
        CHANNELS 3 Zrotation Xrotation Yrotation
        End Site
        {
          OFFSET 0 -5 10
        }
      }
    }
  }
  JOINT pelvis_left_femur
  {
    OFFSET 11.43119 -3.542788 0.2090856
    CHANNELS 3 Zrotation Xrotation Yrotation
    JOINT left_femur_tibia
    {
      OFFSET 1.028693 -40.73281 5
      CHANNELS 3 Zrotation Xrotation Yrotation
      JOINT left_tibia_foot
      {
        OFFSET 0.3200228 -42.98253 -5
        CHANNELS 3 Zrotation Xrotation Yrotation
        End Site
        {
          OFFSET 0 -5 10
        }
      }
    }
  }
  JOINT pelvis_spine1
  {
    OFFSET 0 8.64413 -3.209807
    CHANNELS 3 Zrotation Xrotation Yrotation
    JOINT spine1
    {
      OFFSET 0 29.53957 -1.762685
      CHANNELS 3 Zrotation Xrotation Yrotation
      JOINT spine2
      {
        OFFSET 0 16.36153 -0.1422377
        CHANNELS 3 Zrotation Xrotation Yrotation
        JOINT neck
        {
          OFFSET 0 11.60093 5
          CHANNELS 3 Zrotation Xrotation Yrotation
          End Site
          {
            OFFSET 0 20 0
          }
        }
      }
      JOINT right_manubrium
      {
        OFFSET -4.671311 15.89868 4
        CHANNELS 3 Zrotation Xrotation Yrotation
        JOINT right_clavicle
        {
          OFFSET -13.601 1.573642 -2.74176
          CHANNELS 3 Zrotation Xrotation Yrotation
          JOINT right_humerus
          {
            OFFSET -0.06331682 -27.72702 2.252146
            CHANNELS 3 Zrotation Xrotation Yrotation
            JOINT right_radius
            {
              OFFSET -0.5696302 -23.92083 0.4042105
              CHANNELS 3 Zrotation Xrotation Yrotation
              End Site
              {
                OFFSET 0 -15 0
              }
            }
          }
        }
      }
      JOINT left_manubrium
      {
        OFFSET 4.671311 15.89868 4
        CHANNELS 3 Zrotation Xrotation Yrotation
        JOINT left_clavicle
        {
          OFFSET 13.601 1.573642 -2.74176
          CHANNELS 3 Zrotation Xrotation Yrotation
          JOINT left_humerus
          {
            OFFSET 0.000209614 -29.01858 1.101395
            CHANNELS 3 Zrotation Xrotation Yrotation
            JOINT left_radius
            {
              OFFSET -0.2288314 -24.59216 1.790347
              CHANNELS 3 Zrotation Xrotation Yrotation
              End Site
              {
                OFFSET 0 -15 0
              }
            }
          }
        }
      }
    }
  }
}
MOTION
Frames: 11
Frame Time: 0.0416666666667
0.007251659 48.02479 0.03948343 -3.298887 -22.19644 -1.990018 -48.56356 -60.53884 -38.22985 -180 81.70183 -180 10.63649 2.759495 3.138287 64.31358 -47.78441 50.61829 -180 71.85436 -180 -7.082124 -7.98005 -12.3972 -2.815868 18.08594 -0.5313511 8.311892 15.58812 -11.22642 -7.666216 7.56546 8.205992 9.835542 -28.64718 6.022678 19.96003 -8.294749 25.66121 -58.66656 -35.84385 14.65411 0 -72.822 0 1.577526 -21.49307 -6.396286 -26.67576 -33.18705 -8.061356 52.87498 -24.7326 -28.75156 0 -76.87057 0 -20.17745 -6.089409 0.7941104
-0.01552603 48.03529 0.06930864 -3.236408 -22.18014 -2.260974 -48.58538 -60.68993 -38.26555 -180 81.70638 -180 10.61837 2.807195 3.265651 64.12759 -47.66764 50.41434 -180 71.83895 -180 -7.10361 -8.049854 -12.21315 -2.810675 18.1897 -0.903695 8.363256 15.55534 -11.39262 -7.751909 7.611801 7.658883 9.944885 -28.56096 5.14457 19.63394 -8.823901 25.37058 -59.38612 -35.12848 13.96865 0 -73.10074 0 1.207507 -22.15389 -6.784842 -26.80703 -33.05156 -7.999291 52.85705 -24.52162 -29.28102 0 -77.05204 0 -20.65449 -4.864396 -1.344096
-0.0504714 48.0559 0.102758 -3.202867 -22.18317 -2.401128 -48.52723 -60.7424 -38.21535 -180 81.70189 -180 10.60648 2.825039 3.360727 63.96033 -47.6286 50.19604 -180 71.82788 -180 -7.110797 -8.107525 -12.05096 -2.722664 18.27669 -1.169364 8.361236 15.62523 -11.51716 -7.802687 7.722445 6.901786 10.08471 -28.46041 3.963828 19.34622 -9.528906 24.90421 -60.23368 -34.20116 13.03355 0 -73.1999 0 0.9318548 -22.83669 -7.050503 -26.95869 -33.02692 -7.598485 53.05707 -24.08501 -29.51498 0 -77.2523 0 -21.04452 -3.421019 -3.756869
0.01621376 48.13681 0.1461208 -3.239185 -22.17371 -2.417862 -48.51224 -60.65132 -38.17165 -180 81.729 -180 10.60261 2.82487 3.401067 63.73746 -47.67206 49.97935 -180 71.82539 -180 -7.108255 -8.149516 -11.93071 -2.436341 18.3807 -1.374466 8.376863 15.79639 -11.64981 -7.807122 7.879313 5.779631 10.23172 -28.37217 2.278778 19.09809 -10.5165 24.24876 -61.38929 -32.95946 11.64713 0 -72.85513 0 0.7139212 -23.49258 -7.240675 -27.0362 -33.1311 -6.747539 53.52827 -23.40829 -29.45836 0 -77.25323 0 -21.2869 -1.710727 -6.38893
-0.08593749 48.04272 0.1488333 -2.957823 -22.14749 -2.350176 -48.85844 -60.84367 -38.31245 -180 81.58969 -180 10.62502 2.775284 3.37995 63.57783 -47.75759 49.96245 -180 71.82479 -180 -7.102203 -8.153187 -11.89206 -2.586149 18.50813 -1.20901 8.379098 15.85756 -11.70955 -7.834562 8.117788 4.266073 10.32825 -28.18915 0.00426392 18.82137 -11.81962 23.49609 -62.83516 -31.43624 9.869357 0 -71.89374 0 0.5550843 -24.06875 -7.38375 -26.75106 -33.41217 -5.551486 54.29154 -22.66488 -29.20292 0 -76.90138 0 -21.38273 0.229416 -9.142466
-0.07138355 48.02962 0.1384485 -2.774236 -22.09362 -2.133286 -49.1925 -60.85788 -38.41739 -180 81.53649 -180 10.64959 2.727993 3.308389 63.39422 -47.9284 50.00615 -180 71.85843 -180 -7.087821 -8.135325 -11.89846 -2.457642 18.70302 -1.07701 8.427925 15.9645 -11.88564 -7.926906 8.375339 2.571097 10.40212 -28.02155 -2.576127 18.44482 -13.47788 22.77947 -64.57657 -29.70895 7.780981 0 -70.11376 0 0.465653 -24.50471 -7.499459 -26.41713 -33.64997 -4.342674 55.09503 -21.82598 -28.99516 0 -75.972 0 -21.3926 2.281343 -11.85293
0.04009511 48.10413 0.135417 -2.687997 -22.00679 -1.786444 -49.47095 -60.71406 -38.44835 -180 81.56028 -180 10.67312 2.686272 3.199075 63.21857 -48.1426 50.13402 -180 71.92447 -180 -7.065731 -8.099758 -11.95052 -2.049781 18.97417 -1.010344 8.444569 16.06726 -12.12805 -8.084861 8.578267 0.9599006 10.49559 -27.91131 -5.09443 17.95362 -15.40198 22.18932 -66.43267 -27.88828 5.609138 0 -67.36951 0 0.4736919 -24.73667 -7.60166 -26.16455 -33.79315 -3.323875 55.86186 -20.87588 -28.8406 0 -74.56166 0 -21.36794 4.196101 -14.39196
-0.001496718 48.03391 0.1153665 -2.298559 -21.83445 -1.428054 -50.12133 -60.89424 -38.66505 -180 81.39164 -180 10.71241 2.601318 3.068227 63.14744 -48.28913 50.508 -180 71.97502 -180 -7.050532 -8.036019 -12.09642 -2.088023 19.31125 -0.7027731 8.331252 16.03405 -12.18717 -8.262109 8.748501 -0.4058731 10.63475 -27.76218 -7.316928 17.36048 -17.4814 21.6974 -68.19823 -26.05094 3.545811 0 -63.63369 0 0.5856743 -24.72581 -7.710744 -25.77176 -33.91548 -2.433085 56.64697 -19.88389 -28.60936 0 -73.24782 0 -21.30991 5.698112 -16.71919
0.02967217 48.03144 0.1142672 -1.967681 -21.70456 -1.038172 -50.65502 -60.96339 -38.7389 -180 81.27926 -180 10.7393 2.520622 2.926427 63.01985 -48.38757 50.88023 -180 72.05378 -180 -7.032212 -7.959013 -12.27262 -1.852103 19.52157 -0.4548532 8.06239 15.94931 -12.0243 -8.587865 9.151094 -1.475327 10.73993 -27.57269 -9.229811 16.75495 -19.54477 21.39597 -69.78467 -24.16344 1.686302 0 -58.83866 0 0.8232555 -24.4279 -7.834605 -25.58815 -34.37916 -1.8497 57.03171 -19.40269 -28.21117 0 -73.63031 0 -21.14087 6.383635 -18.9272
0.08260104 48.02961 0.1400034 -1.697431 -21.56901 -0.7289736 -51.13059 -61.03566 -38.81232 -180 81.17166 -180 10.76008 2.440844 2.829318 62.94233 -48.43254 51.26232 -180 72.12334 -180 -7.012581 -7.883286 -12.44313 -1.492234 19.8084 -0.3614249 7.705761 15.93869 -11.78721 -9.064451 9.46032 -2.29799 10.79231 -27.50187 -10.85544 16.21199 -21.65338 21.46487 -71.17097 -22.50077 0.03175926 0 -53.42812 0 1.171522 -23.91699 -7.944592 -25.3438 -34.68555 -1.435938 57.37547 -18.92529 -27.92343 0 -74.12552 0 -21.01638 6.803184 -20.90937
0.112586 48.04912 0.1774051 -1.419753 -21.42332 -0.481757 -51.68162 -61.07211 -39.02017 -180 81.07059 -180 10.76959 2.373983 2.824239 62.8181 -48.44478 51.57014 -180 72.18841 -180 -6.997333 -7.809514 -12.57692 -1.026059 20.09355 -0.3580496 7.301108 15.96052 -11.53519 -9.735703 9.707309 -2.901377 10.74028 -27.53271 -12.24525 15.79541 -23.70242 21.90802 -72.32666 -21.08721 -1.395534 0 -47.81215 0 1.611217 -23.28853 -8.009227 -25.15911 -34.87643 -1.35253 57.56441 -18.5924 -27.80693 0 -74.68544 0 -20.89091 7.08763 -22.66094
